# xmcd
#
# Track frame offsets:
#	150
#	11929
#	26693
#	40234
#	66836
#	77367
#	95844
#	112120
#	135707
#	164021
#	203073
#
# Disc length: 3019 seconds
#
# Revision: 0
# Processed by: cddbd v1.5.1PL0 Copyright (c) Steve Scherf et al.
# Submitted via: EasyCDDAExtractor 4.6.9.1
#
DISCID=990bc90b
DTITLE=Nina Simone - Ain't Got No - I Got Life - CD 1
DYEAR=1999
DGENRE=Blues
TTITLE0=Work Song
TTITLE1=Angel Of The Morning
TTITLE2=Ain't Got No - I Got Life
TTITLE3=You Can Have Him
TTITLE4=Lovin' Woman
TTITLE5=Little Lisa Jane
TTITLE6=Here Comes The Sun
TTITLE7=My Way
TTITLE8=Fine And Mellow
TTITLE9=Ninas Blues
TTITLE10=Porgy
EXTD=
EXTT0=
EXTT1=
EXTT2=
EXTT3=
EXTT4=
EXTT5=
EXTT6=
EXTT7=
EXTT8=
EXTT9=
EXTT10=
PLAYORDER=
